<?xml version="1.0" encoding="utf-8"?>
<!-- Generator: Adobe Illustrator 18.0.0, SVG Export Plug-In . SVG Version: 6.00 Build 0)  -->
<!DOCTYPE svg PUBLIC "-//W3C//DTD SVG 1.1//EN" "http://www.w3.org/Graphics/SVG/1.1/DTD/svg11.dtd">
<svg version="1.1" id="Layer_1" xmlns="http://www.w3.org/2000/svg" xmlns:xlink="http://www.w3.org/1999/xlink" x="0px" y="0px"
	 viewBox="0 0 187 54.4" enable-background="new 0 0 187 54.4" xml:space="preserve">
<g>
	<path fill-rule="evenodd" clip-rule="evenodd" d="M158.6,54.4V34.4h0.1v-0.3h-0.1v-0.4h0.1v-0.3h-0.1v-0.4h0.1v-0.3h-0.1v-0.4h0.1
		v-0.3h-0.1v-0.4h0.1v-0.3h-0.1v-1.1h0.2v-0.3h0.2v0.3h0.4V30h1.3v-0.5l1.1-0.2l0.8,0.2v0.1l0.9-0.1v-0.8h0.2v0.8l0.1,0v0.3h0.8v1
		h0.7v0.1h1.1V31h0.8v0.7h1v2.9h1.2v-1.5h2.7v-0.7h0.7v-1.3h0.2v1.3h0.4v0.7h0.3v1.7h2v9.3h4.6v4.4h6.8v5.9H158.6z M96.9,0.2
		c0.1-0.1,0.3-0.1,0.4-0.2c0.3,0.2,1,0.8,1,0.8v0.3h-1.4V0.2L96.9,0.2z M158.6,30.4h-0.2V32h-0.2v0.3h0.2v0.3h-0.2v0.3h0.2v0.3h-0.2
		v0.3h0.2v0.3h-0.2v0.3h0.2v0.3h-0.2v0.1H158v-1.6h-0.5v-0.2l-0.5-0.6h0v-0.5h-0.6v-17l-0.2-0.1l0,0c0.3,0,0.5-0.2,0.5-0.6
		c0-0.4-0.8-0.8-1.1-0.8c-0.3,0-0.4,0.3-0.4,0.3l0.3,0l0,0.2l-1.1,0.1l-0.3-0.2l0-0.4l-2.2-1.3L149,12l-0.3,0.2
		c-1.2,0-1.6,0.7-1.6,0.7l0.5,0l-0.4,0.2l-1.3,0l-1,0.7c-0.2,0.1-0.4,0.2-0.4,0.3l0,0l0,0c-0.1,0.1-0.1,0.2-0.1,0.2
		c0,0.2,0.1,0.3,0.3,0.4l-0.5,0.3c-0.2-1.2-1.1-2.2-2.3-2.4v-0.5c0-0.2-0.1-0.3-0.3-0.3h-0.1v-1.1h-0.2v1.1h-0.1
		c-0.2,0-0.3,0.1-0.3,0.3v0.5c-1.3,0.2-2.2,1.3-2.4,2.6l-1.8,0.4v0.5l-1.2,0.1l-1.8,1v14.7h-0.8v0.8H132V39h-1V10.7l-0.8-0.3
		l0.5-0.1l0.3,0.1v-0.2l-2.1-0.8l-1-0.1l-1-0.5V7.9l-1.8-0.7c-0.4-0.5-1.1-0.8-1.9-0.8c-0.2,0-0.4,0-0.6,0.1V5.5h-0.3v1
		c-0.4,0.1-0.7,0.3-0.9,0.6h-0.1l-0.9,0.8v1.1l-2,0.7v1.6H118v0.9h-0.9v1.6l-0.3,0.2l0,0.6l0.3-0.2v0.5l-0.7,0.6l0.3,0.2l0.4,0v0.4
		h-0.8v16.1h-0.9v0.4h-0.5v0.2h-0.5v0.7l-1.4,0.4v1.8h-1v-2.2h-0.3v2.2h-0.8v-1.9h0.2v-0.3h-0.2v-0.1h-1.6v-0.6h0.1v-0.6h-0.1v-0.4
		H109v1.6h-1.3v-0.6h-1.3v-3.2h-0.9v-1.2h-3.6l-1.6-1v0h0.2V27h-0.2v-1.6h0.2v-0.3h-0.2v-1.6h0.2v-0.3h-0.2v-1.6h0.2v-0.3h-0.2v-1.6
		h0.2v-0.3h-0.2v-1.6h0.2v-0.3h-0.2V16h0.2v-0.3h-0.2V4.2h-0.1V1.3h-1.8V1.1h-0.1h-1.4v53.3h61.7V34.4h-0.1v-0.3h0.1v-0.4h-0.1v-0.3
		h0.1v-0.4h-0.1v-0.3h0.1v-0.4h-0.1v-0.3h0.1v-0.4h-0.1v-0.3h0.1V30.4z M95.5,1.1c0.3-0.3,0.8-0.6,1.4-0.9v0.9H95.5L95.5,1.1z
		 M96.9,1.1h-1.4h0V0.9h-1.3v0.7h-0.7v0.8h-0.5v1.8H93c-0.6,0-0.7,1.9,0.1,2v0.9c-0.6,0.1-0.7,0.8-0.7,1.3v26.9l-0.6,0.1v1.1h-0.7
		v-1.6h-1.5v-1.3h-0.6v-0.4h-1.4v0.4h-0.2l-0.5,0.3v1h-0.2v-0.7h-0.3v-2.1h-0.7v-0.8h-1.6v-1.9l-1.7-0.2v-0.4c0-0.3-0.3-0.6-0.6-0.6
		l-2.5-0.4v-0.2h0.3V27l-2.2-0.2v-0.4h-0.5v-1h-0.7V21l-0.6-0.7l-5.7,1.1l-0.7,0.5v12.8h-0.3v0.8h-0.5v-4.6l-5.4,1.5v-0.2h0.1v-0.4
		h-0.1v-0.2h0.1v-0.4h-0.1V31h0.1v-0.4h-0.1v-0.2h0.1v-0.4h-0.1v-0.2h0.1v-0.4h-0.1v-0.2h0.1V29h-0.1v-0.2h0.1v-0.4h-0.1v-0.2h0.1
		v-0.4h-0.1v-0.2h0.1v-0.4h-0.1v-0.2h0.1v-0.4h-0.1v-0.2h0.1v-0.4h-0.1V26h0.1v-0.4h-0.1v-0.2h0.1V25h-0.1v-0.2h0.1v-0.4h-0.1v-0.2
		h0.1v-0.4h-0.1v-1.1c0-1.3-9.7-0.9-9.7-0.1v1.3h-0.2v0.4H53v0.2h-0.2v0.4H53V25h-0.2v0.4H53v0.2h-0.2V26H53v0.2h-0.2v0.4H53v0.2
		h-0.2v0.4H53v0.2h-0.2v0.4H53v0.2h-0.2v0.4H53v0.2h-0.2v0.4H53V29h-0.2v0.4H53v0.2h-0.2v0.4H53v0.2h-0.2v0.4H53v0.2h-0.2V31H53v0.2
		h-0.2v0.4H53v0.2h-0.2v0.4H53v0.2h-0.2v0.4H53v0.2h-0.2v0.4H53v0.2h-0.2v0.4H53V34h-0.2v0.4H53v0.2h-0.2v0.4H53v0.2h-0.2v0.4H53
		v0.2h-0.2V36H53v0.2h-0.2v0.4H53v0.2h-0.2v0.4H53v0.2h-0.2v0.4H53v0.2h-0.2v0.4H53v0.2h-0.2v0h-1.6v-8.8h-0.7v-1h-0.1v-0.2h-0.1
		v-0.4h-0.1v0.5h-3.6v-2.6l-0.4-0.6h-0.2v-1.3h0.2c0.1,0,0.2-0.1,0.2-0.2v-8c0-0.5,0.1-0.6-0.5-0.6c-0.7-0.1-1.3-0.1-2-0.1v-0.1H44
		c0.1,0,0.1,0,0.1-0.1l0,0c0-0.1,0-0.1-0.1-0.1h-0.1v-0.6H44c0.1,0,0.1,0,0.1-0.1l0,0c0-0.1,0-0.1-0.1-0.1h-0.1v-0.6H44
		c0.1,0,0.1,0,0.1-0.1l0,0c0-0.1,0-0.1-0.1-0.1h-0.1v-0.6H44c0.1,0,0.1,0,0.1-0.1l0,0c0-0.1,0-0.1-0.1-0.1h-0.1V8.4
		c0-0.1-0.1-0.2-0.2-0.2l0,0c-0.1,0-0.2,0.1-0.2,0.2v4.1h0v0.2h0v0.6h0v0.2h0v0.2l0,0V14l0,0v0l0,0v0.3l0,0V15h0v0.2h0v0.1l0,0v39.1
		h53.4V1.1z M43.5,12.5v0.2h-0.1c-0.1,0-0.1,0-0.1-0.1l0,0C43.3,12.5,43.4,12.5,43.5,12.5L43.5,12.5L43.5,12.5z M43.5,13.3v0.2h-0.1
		c-0.1,0-0.1,0-0.1-0.1l0,0C43.3,13.4,43.4,13.3,43.5,13.3L43.5,13.3L43.5,13.3z M43.5,13.7V14l0,0l0,0v0.3l-0.4,0.7v-0.5l0.1-0.2
		l-0.1,0.1v-0.3L43.5,13.7L43.5,13.7z M43.5,15L43.5,15c-0.1,0-0.2,0-0.2,0.1l0,0c0,0.1,0,0.1,0.1,0.1h0.1V15L43.5,15z M43.5,15.3
		v39.1h-0.4V15.3C43.2,15.3,43.4,15.3,43.5,15.3z M43.1,14.2v0.3l-0.3,0.3v-0.4L43.1,14.2L43.1,14.2z M43.1,14.6l-0.3,0.6v39.2h0.3
		V15.3H43l0.1-0.1V14.6z M42.8,14.5v0.4l-0.4,0.4c0.1,0,0.2,0,0.3,0l0.1-0.1v39.2h-2V15.9c0.3,0,0.6,0,0.6,0s0.1,0,0.3-0.3
		c-0.4,0-0.7,0-1,0v-0.4c0.4,0,0.8,0,1.2-0.1L42.8,14.5z M40.8,15.3v0.4c-0.9,0.1-1,0.3-1,0.3c0,0,0.5,0,1,0v38.4H0v-5.7h7v-3.4h1.3
		v-4.9h1.4V40h1.2v-0.7H11v-0.2h-0.1v-0.4H12v-0.1h1.3v0.1h0.2v0.4h-0.1v0.2h0.7V40h0.1v0.4h0.1v2.7h0.1V43h0v-0.3h0.9V43h-0.1v0.1
		h1.2V29.6c0-0.2,0.2-0.3,0.4-0.4c0.1,0,0.3-0.1,0.4-0.1v-0.3c0-0.3,0.2-0.5,0.5-0.5v-0.7l0.5,0V27c0-0.1,0.1-0.2,0.2-0.2l2.8-0.5
		c0.1,0,0.2,0.1,0.2,0.2v0.8l0.5-0.1v0.9c0.3,0,0.5,0.3,0.5,0.5v0.2c0.1,0,0.1,0,0.2,0c0.2,0,0.4,0.2,0.4,0.4v5.2h0.5v-0.6h0.7V33
		h0.2l0.4,0.5h0.6V33h0.2l0.6,0.5v0.3h0.5v0.6h0.8v1.7h0.1v0.1h-0.1v0.1h0.1v0.1h-0.1v0.1h0.1v0.1h-0.1V37h0.1v0.1h-0.1v0.1h0.1v0.1
		h-0.1v0.1h0.1v0.1h-0.1v0.1h0.1v0.1h-0.1v0.1h0.1V38h-0.1v0.1h0.1v0.1h-0.1v0.1h0.1v0.1h-0.1v0.1h0.1v0.1h-0.1v0.1h0.1v0h0.1v0.2
		h-0.2v0h0.1v0.1h-0.1v0.1h0.1v0.1h-0.1v0.1h0.1v0h0.1v0.2h-0.2v0h0.1V40h-0.1v0.1h0.1v0.1h-0.1v0.1h0.1v0.1h-0.1v0.1h0.1v0.1h-0.1
		v0.1h0.1V41h-0.1v0.1h0.1v0.1h-0.1v0.1h0.1v0.1h-0.1v0.1h0.1v0.1h-0.1v0.1h0.1V42h-0.1v0.1h0.1v0.1h-0.1v0.1h0.1v0.1h-0.1v0.1h0.3
		v-0.2h0.2v-0.2h0.5v-1.3h0.6v-1h1.2v-1.8h0.5v-0.3h0.3v0.2h0.4v-0.9h0.3l0.8,0.9v0.2h0.5v0.2h0.2v0.4h1.3v-8.3h0.5v-0.6h4.2v-4.5
		h-0.2v-0.2l-0.5-0.4v-0.3l0.7,0v0h-0.3v-0.2l-0.5-0.4v-0.3l0.7,0v0h-0.3V23l-0.5-0.4v-0.3l0.7,0v0h-0.3V22l-0.5-0.4v-0.3l0.7,0v0
		h-0.3V21l-0.5-0.4v-0.3l0.7,0v0h-0.3v-0.2l-0.5-0.4v-0.3l0.7,0v0h-0.3v-0.2l-0.5-0.4v-0.3l0.7,0v-0.6v-1.9c0-0.4,0.1-0.4,0.5-0.4
		C40.2,15.4,40.5,15.3,40.8,15.3z"/>
</g>
</svg>
